<?xml version="1.0" encoding="UTF-8" standalone="no"?>
<!-- Created with Inkscape (http://www.inkscape.org/) -->

<svg
   width="146"
   height="24"
   viewBox="0 0 146.00001 24.000002"
   version="1.1"
   id="svg1"
   xml:space="preserve"
   sodipodi:docname="logo.svg"
   inkscape:export-filename="../logo.png"
   inkscape:export-xdpi="96"
   inkscape:export-ydpi="96"
   inkscape:version="1.3.2 (091e20e, 2023-11-25)"
   xmlns:inkscape="http://www.inkscape.org/namespaces/inkscape"
   xmlns:sodipodi="http://sodipodi.sourceforge.net/DTD/sodipodi-0.dtd"
   xmlns="http://www.w3.org/2000/svg"
   xmlns:svg="http://www.w3.org/2000/svg"><sodipodi:namedview
     id="namedview1"
     pagecolor="#ffffff"
     bordercolor="#999999"
     borderopacity="1"
     inkscape:showpageshadow="2"
     inkscape:pageopacity="0"
     inkscape:pagecheckerboard="0"
     inkscape:deskcolor="#d1d1d1"
     inkscape:zoom="4.9383562"
     inkscape:cx="72.898752"
     inkscape:cy="11.947295"
     inkscape:window-width="1472"
     inkscape:window-height="841"
     inkscape:window-x="0"
     inkscape:window-y="37"
     inkscape:window-maximized="1"
     inkscape:current-layer="svg1" /><defs
     id="defs1"><rect
       x="4.570015"
       y="7.0627503"
       width="22.968777"
       height="20.416691"
       id="rect2" /></defs><g
     id="layer1"><g
       id="layer1-4"
       transform="scale(0.75023195)"><rect
         style="fill:#f2603b;fill-opacity:1"
         id="rect1"
         width="31.990107"
         height="31.990107"
         x="0"
         y="0"
         ry="2.7301388" /><text
         xml:space="preserve"
         id="text1"
         style="font-style:normal;font-variant:normal;font-weight:normal;font-stretch:normal;font-family:Sans;-inkscape-font-specification:Sans;white-space:pre;shape-inside:url(#rect2);display:inline;fill:#ffffff;fill-opacity:1"
         transform="matrix(2.3319757,0,0,1.9931933,-4.0927945,-11.203419)"><tspan
           x="4.5703125"
           y="18.010464"
           id="tspan1">E</tspan></text></g><path
       d="m 36.233432,19.800959 q 0,2.065216 -1.714265,3.388035 -1.700766,1.322818 -4.656859,1.322818 -1.67377,0 -3.077577,-0.391447 -1.390309,-0.404944 -2.335179,-0.877379 v -2.848108 h 0.134981 q 1.201335,0.904375 2.672633,1.444301 1.471298,0.526428 2.821112,0.526428 1.67377,0 2.61864,-0.539926 0.94487,-0.539926 0.94487,-1.700766 0,-0.890878 -0.512929,-1.349815 -0.51293,-0.458937 -1.970729,-0.782892 -0.539926,-0.121483 -1.417306,-0.283461 -0.863881,-0.161978 -1.579282,-0.350952 -1.984228,-0.526427 -2.821113,-1.538788 -0.823386,-1.025859 -0.823386,-2.510655 0,-0.931372 0.377948,-1.754759 0.391446,-0.823387 1.174338,-1.471298 0.755896,-0.6344123 1.916737,-0.9988622 1.174338,-0.377948 2.61864,-0.377948 1.349814,0 2.726625,0.3374536 1.390309,0.3239554 2.308182,0.7963905 v 2.7131271 h -0.134981 q -0.971866,-0.715402 -2.362175,-1.201335 -1.390309,-0.499431 -2.726625,-0.499431 -1.390309,0 -2.348677,0.539925 -0.958369,0.526428 -0.958369,1.579283 0,0.931372 0.58042,1.403807 0.566923,0.472435 1.835748,0.769395 0.701904,0.161977 1.565785,0.323955 0.877379,0.161978 1.457799,0.296959 1.768257,0.404945 2.726626,1.390309 0.958368,0.998863 0.958368,2.645636 z m 16.481234,-3.185562 q 0,3.684994 -1.88974,5.8177 -1.88974,2.132707 -5.061804,2.132707 -3.19906,0 -5.0888,-2.132707 -1.876243,-2.132706 -1.876243,-5.8177 0,-3.684993 1.876243,-5.8177 1.88974,-2.1462048 5.0888,-2.1462048 3.172064,0 5.061804,2.1462048 1.88974,2.132707 1.88974,5.8177 z m -2.61864,0 q 0,-2.929097 -1.147342,-4.346402 -1.147342,-1.430803 -3.185562,-1.430803 -2.065216,0 -3.212558,1.430803 -1.133845,1.417305 -1.133845,4.346402 0,2.834611 1.147343,4.305908 1.147342,1.4578 3.19906,1.4578 2.024722,0 3.172064,-1.444302 1.16084,-1.457799 1.16084,-4.319406 z M 61.339981,6.5457817 H 58.478374 V 3.9136436 h 2.861607 z M 61.178003,24.511812 q 0,2.645636 -1.349815,3.99545 -1.349814,1.349815 -3.617502,1.349815 -0.539926,0 -1.430804,-0.107985 -0.877379,-0.107986 -1.471297,-0.269963 v -2.416168 h 0.134981 q 0.377948,0.148479 1.012361,0.337454 0.647911,0.188974 1.255327,0.188974 0.971867,0 1.565785,-0.269963 0.593918,-0.269963 0.890878,-0.809889 0.296959,-0.539926 0.377948,-1.30932 0.09449,-0.755896 0.09449,-1.849246 V 11.202641 H 55.495284 V 9.0699347 h 5.682719 z M 68.885441,6.5457817 H 66.023834 V 3.9136436 h 2.861607 z M 68.723463,24.147362 H 66.185812 V 9.0699347 h 2.537651 z m 15.792829,-4.346403 q 0,2.065216 -1.714265,3.388035 -1.700766,1.322818 -4.656859,1.322818 -1.67377,0 -3.077577,-0.391447 -1.390309,-0.404944 -2.335179,-0.877379 v -2.848108 h 0.134981 q 1.201335,0.904375 2.672633,1.444301 1.471297,0.526428 2.821112,0.526428 1.67377,0 2.61864,-0.539926 0.94487,-0.539926 0.94487,-1.700766 0,-0.890878 -0.51293,-1.349815 -0.512929,-0.458937 -1.970729,-0.782892 -0.539925,-0.121483 -1.417305,-0.283461 -0.863881,-0.161978 -1.579283,-0.350952 -1.984227,-0.526427 -2.821112,-1.538788 -0.823387,-1.025859 -0.823387,-2.510655 0,-0.931372 0.377948,-1.754759 0.391447,-0.823387 1.174339,-1.471298 0.755896,-0.6344123 1.916736,-0.9988622 1.174339,-0.377948 2.61864,-0.377948 1.349815,0 2.726626,0.3374536 1.390308,0.3239554 2.308182,0.7963905 v 2.7131271 h -0.134981 q -0.971867,-0.715402 -2.362175,-1.201335 -1.390309,-0.499431 -2.726626,-0.499431 -1.390308,0 -2.348677,0.539925 -0.958368,0.526428 -0.958368,1.579283 0,0.931372 0.58042,1.403807 0.566922,0.472435 1.835748,0.769395 0.701903,0.161977 1.565785,0.323955 0.877379,0.161978 1.457799,0.296959 1.768257,0.404945 2.726625,1.390309 0.958369,0.998863 0.958369,2.645636 z m 11.459927,4.211421 q -0.715401,0.188974 -1.565785,0.310458 -0.836884,0.121483 -1.498294,0.121483 -2.308182,0 -3.509517,-1.241829 -1.201335,-1.24183 -1.201335,-3.981953 V 11.202641 H 86.487024 V 9.0699347 h 1.714264 V 4.7370304 h 2.537651 v 4.3329043 h 5.23728 v 2.1327063 h -5.23728 v 6.870556 q 0,1.187837 0.05399,1.862744 0.05399,0.661409 0.377948,1.241829 0.296959,0.539926 0.809888,0.796391 0.526428,0.242966 1.592782,0.242966 0.620914,0 1.295821,-0.175476 0.674908,-0.188974 0.971867,-0.310457 h 0.134981 z"
       id="text4"
       style="font-size:27.6442px;font-family:Sans;-inkscape-font-specification:Sans;fill:#f1683c;stroke-width:2.30369"
       transform="scale(1.3343016,0.74945574)"
       aria-label="sojist" /></g></svg>
